<?xml version="1.0" encoding="utf-8"?>
<!-- Generator: Adobe Illustrator 16.0.0, SVG Export Plug-In . SVG Version: 6.00 Build 0)  -->
<!DOCTYPE svg PUBLIC "-//W3C//DTD SVG 1.1//EN" "http://www.w3.org/Graphics/SVG/1.1/DTD/svg11.dtd">
<svg version="1.1" id="圖層_1" xmlns="http://www.w3.org/2000/svg" xmlns:xlink="http://www.w3.org/1999/xlink" x="0px" y="0px"
	 width="40px" height="40px" viewBox="0 0 40 40" enable-background="new 0 0 40 40" xml:space="preserve">
<image overflow="visible" enable-background="new    " width="800" height="600" xlink:href="58F96C52.jpeg"  transform="matrix(1 0 0 1 -1085 -315.1797)">
</image>
<polygon fill="#EEEEEE" points="23.563,120.02 56.438,139 23.563,157.98 "/>
<polygon fill="#EEEEEE" points="-121.719,48.01 -121.719,57.662 -138.438,48.01 -138.438,68.962 -121.719,59.311 -121.719,68.962 
	-116.573,68.962 -116.573,48.01 "/>
<polygon fill="#EEEEEE" points="-188.292,68.962 -188.292,59.311 -171.573,68.962 -171.573,48.01 -188.292,57.662 -188.292,48.01 
	-193.438,48.01 -193.438,68.962 "/>
<g>
	<rect x="244.563" y="58.486" fill="#D3D3D3" width="12.938" height="37.961"/>
	<rect x="264.5" y="58.486" fill="#D3D3D3" width="12.938" height="37.961"/>
</g>
<path fill="#00ACB4" enable-background="new    " d="M13.543,13.543h12.914v2.311c-0.006,0.353,0.275,0.643,0.629,0.648
	c0.178,0.003,0.348-0.068,0.471-0.196l3.601-3.6c0.254-0.246,0.26-0.65,0.014-0.904c-0.004-0.004-0.009-0.009-0.014-0.013
	l-3.601-3.6c-0.254-0.25-0.662-0.248-0.914,0.005c-0.121,0.123-0.188,0.288-0.186,0.459v2.311H12.256
	c-0.711,0.005-1.286,0.58-1.291,1.291v5.165c0,0.713,0.578,1.292,1.292,1.292c0.714,0,1.292-0.578,1.292-1.292L13.543,13.543z
	 M26.457,26.456H13.543v-2.312c0.005-0.354-0.276-0.644-0.629-0.648c-0.177-0.002-0.348,0.068-0.471,0.197l-3.6,3.6
	c-0.253,0.246-0.259,0.65-0.013,0.904c0.004,0.004,0.009,0.008,0.013,0.013l3.6,3.601c0.254,0.25,0.663,0.248,0.914-0.006
	c0.121-0.123,0.188-0.287,0.187-0.459v-2.307h14.2c0.711-0.005,1.285-0.58,1.291-1.291v-5.165c0-0.714-0.578-1.292-1.292-1.292
	s-1.291,0.578-1.291,1.292L26.457,26.456z"/>
</svg>
