<?xml version="1.0" encoding="utf-8"?>
<!-- Generator: Adobe Illustrator 16.0.0, SVG Export Plug-In . SVG Version: 6.00 Build 0)  -->
<!DOCTYPE svg PUBLIC "-//W3C//DTD SVG 1.1//EN" "http://www.w3.org/Graphics/SVG/1.1/DTD/svg11.dtd">
<svg version="1.1" id="圖層_1" xmlns="http://www.w3.org/2000/svg" xmlns:xlink="http://www.w3.org/1999/xlink" x="0px" y="0px"
	 width="40px" height="40px" viewBox="0 0 40 40" enable-background="new 0 0 40 40" xml:space="preserve">
<polygon fill="#EEEEEE" points="23.563,120.02 56.438,139 23.563,157.98 "/>
<polygon fill="#EEEEEE" points="-121.719,48.01 -121.719,57.662 -138.438,48.01 -138.438,68.962 -121.719,59.311 -121.719,68.962 
	-116.573,68.962 -116.573,48.01 "/>
<polygon fill="#EEEEEE" points="-188.292,68.962 -188.292,59.311 -171.573,68.962 -171.573,48.01 -188.292,57.662 -188.292,48.01 
	-193.438,48.01 -193.438,68.962 "/>
<g>
	<rect x="244.563" y="58.486" fill="#D3D3D3" width="12.938" height="37.961"/>
	<rect x="264.5" y="58.486" fill="#D3D3D3" width="12.938" height="37.961"/>
</g>
<path fill="#00ACB4" d="M13.543,13.543h12.914v2.311c-0.006,0.353,0.275,0.643,0.629,0.648c0.178,0.003,0.348-0.068,0.471-0.196
	l3.602-3.6c0.254-0.246,0.26-0.65,0.014-0.904c-0.004-0.004-0.009-0.009-0.014-0.013l-3.602-3.6
	c-0.254-0.25-0.662-0.248-0.914,0.005c-0.121,0.123-0.188,0.288-0.186,0.459v2.311H12.256c-0.711,0.005-1.286,0.58-1.291,1.291
	v5.165c0,0.713,0.578,1.292,1.292,1.292c0.714,0,1.292-0.578,1.292-1.292L13.543,13.543z"/>
<g>
	<path fill="none" d="M21.615,29.039v1.037h-1.207v-1.037h-2.363c0.441,1.217,1.597,2.092,2.966,2.092
		c1.37,0,2.525-0.875,2.967-2.092H21.615z"/>
	<path fill="none" d="M20.408,25.854h1.207v0.603h2.164c-0.538-0.982-1.568-1.657-2.768-1.657c-1.199,0-2.229,0.675-2.767,1.657
		h2.164V25.854z"/>
	<path fill="#00ACB4" d="M27.743,21.291c-0.714,0-1.291,0.578-1.291,1.292l0.005,3.873h-1.158c0.167,0.475,0.275,0.978,0.275,1.509
		c0,0.372-0.057,0.729-0.141,1.074h2.311c0.711-0.005,1.285-0.58,1.291-1.291v-5.165C29.035,21.869,28.457,21.291,27.743,21.291z"/>
	<path fill="#00ACB4" d="M16.725,26.456h-3.182v-2.312c0.005-0.354-0.276-0.645-0.629-0.648c-0.177-0.002-0.348,0.068-0.471,0.197
		l-3.6,3.6c-0.253,0.246-0.259,0.65-0.013,0.904c0.004,0.004,0.009,0.008,0.013,0.013l3.6,3.601c0.254,0.25,0.663,0.248,0.914-0.006
		c0.121-0.123,0.188-0.287,0.187-0.459v-2.307h3.046c-0.084-0.346-0.141-0.702-0.141-1.074
		C16.449,27.434,16.558,26.931,16.725,26.456z"/>
	<path fill="#00ACB4" d="M25.387,26.425c-0.639-1.811-2.346-3.116-4.375-3.116s-3.737,1.306-4.375,3.116
		c-0.17,0.484-0.281,0.998-0.281,1.54c0,0.38,0.058,0.743,0.144,1.097c0.495,2.04,2.321,3.56,4.513,3.56
		c2.191,0,4.018-1.52,4.513-3.56c0.086-0.354,0.144-0.717,0.144-1.097C25.668,27.423,25.558,26.909,25.387,26.425z M24.039,29.062
		c-0.45,1.241-1.629,2.135-3.027,2.135c-1.397,0-2.577-0.894-3.027-2.135c-0.125-0.344-0.204-0.71-0.204-1.097
		c0-0.562,0.156-1.08,0.407-1.54c0.548-1.002,1.601-1.691,2.824-1.691c1.224,0,2.275,0.689,2.824,1.691
		c0.251,0.46,0.407,0.979,0.407,1.54C24.243,28.352,24.164,28.718,24.039,29.062z"/>
	<polygon fill="#00ACB4" points="21.615,25.854 20.408,25.854 20.408,26.456 20.408,29.039 20.408,30.076 21.615,30.076 
		21.615,29.039 21.615,26.456 	"/>
</g>
</svg>
