<?xml version="1.0" encoding="utf-8"?>
<!-- Generator: Adobe Illustrator 16.0.0, SVG Export Plug-In . SVG Version: 6.00 Build 0)  -->
<!DOCTYPE svg PUBLIC "-//W3C//DTD SVG 1.1//EN" "http://www.w3.org/Graphics/SVG/1.1/DTD/svg11.dtd">
<svg version="1.1" id="圖層_1" xmlns="http://www.w3.org/2000/svg" xmlns:xlink="http://www.w3.org/1999/xlink" x="0px" y="0px"
	 width="40px" height="40px" viewBox="0 0 40 40" enable-background="new 0 0 40 40" xml:space="preserve">
<image overflow="visible" enable-background="new    " width="800" height="600" xlink:href="E2DB7D05.jpeg"  transform="matrix(1 0 0 1 -1085 -315.1797)">
</image>
<polygon fill="#D3D3D3" points="151.063,21.02 183.938,40 151.063,58.98 "/>
<polygon fill="#D3D3D3" points="34.855,-87.48 34.855,-77.828 18.137,-87.48 18.137,-66.528 34.855,-76.181 34.855,-66.528 
	40,-66.528 40,-87.48 "/>
<polygon fill="#D3D3D3" points="-48.786,-68.5 -48.786,-78.152 -32.068,-68.5 -32.068,-89.452 -48.786,-79.8 -48.786,-89.452 
	-53.932,-89.452 -53.932,-68.5 "/>
<g>
	<rect x="120.563" y="-87.48" fill="#D3D3D3" width="12.938" height="37.961"/>
	<rect x="140.5" y="-87.48" fill="#D3D3D3" width="12.938" height="37.961"/>
</g>
<line fill="none" x1="-185.5" y1="-136.49" x2="-173" y2="-136.49"/>
<path fill="#00ADB5" enable-background="new    " d="M12.399,29.027H9.1c-0.607,0-1.1-0.491-1.1-1.1c0-0.607,0.493-1.101,1.1-1.101
	h3.3c1.182-0.075,2.248-0.735,2.84-1.761l5.574-11.123c0.974-1.759,2.791-2.885,4.801-2.972h3.299c0.607,0,1.102,0.492,1.102,1.1
	c0,0.608-0.494,1.101-1.102,1.101h-3.299c-1.18,0.08-2.244,0.74-2.84,1.761L17.2,26.057C16.231,27.818,14.41,28.947,12.399,29.027z
	 M28.916,15.156c-0.143,0.003-0.287-0.027-0.418-0.088c-0.41-0.169-0.68-0.568-0.682-1.013V10.09
	c-0.004-0.446,0.268-0.849,0.684-1.012c0.406-0.182,0.885-0.084,1.189,0.242l1.979,1.982c0.427,0.405,0.44,1.078,0.037,1.504
	c-0.013,0.013-0.024,0.025-0.037,0.037l-1.981,1.981C29.488,15.041,29.209,15.16,28.916,15.156z M28.916,29.027h-3.299
	c-1.887-0.01-3.635-0.992-4.625-2.6L20,24.448c-0.268-0.548-0.041-1.208,0.506-1.476c0.549-0.269,1.209-0.041,1.477,0.506
	l0.99,1.982c0.611,0.852,1.594,1.357,2.644,1.364h3.299c0.606,0,1.103,0.493,1.103,1.101c0,0.608-0.494,1.1-1.103,1.1L28.916,29.027
	z M17.027,17.139c-0.42-0.002-0.804-0.24-0.991-0.617l-0.991-1.982c-0.612-0.853-1.596-1.359-2.646-1.364H9.1
	c-0.607,0-1.1-0.493-1.1-1.101c0-0.608,0.493-1.1,1.1-1.1h3.3c1.887,0.011,3.635,0.993,4.624,2.6l0.991,1.982
	c0.261,0.547,0.036,1.203-0.506,1.475c-0.152,0.07-0.316,0.107-0.484,0.11L17.027,17.139z M28.918,31.011
	c-0.145,0.003-0.287-0.026-0.418-0.088c-0.416-0.163-0.688-0.565-0.684-1.014v-3.964c-0.004-0.446,0.268-0.85,0.684-1.014
	c0.406-0.182,0.885-0.084,1.189,0.242l1.979,1.98c0.427,0.406,0.442,1.08,0.037,1.506c-0.013,0.012-0.022,0.023-0.037,0.035
	l-1.979,1.982C29.49,30.895,29.209,31.014,28.918,31.011L28.918,31.011z"/>
</svg>
