<?xml version="1.0" encoding="utf-8"?>
<!-- Generator: Adobe Illustrator 16.0.0, SVG Export Plug-In . SVG Version: 6.00 Build 0)  -->
<!DOCTYPE svg PUBLIC "-//W3C//DTD SVG 1.1//EN" "http://www.w3.org/Graphics/SVG/1.1/DTD/svg11.dtd">
<svg version="1.1" id="圖層_1" xmlns="http://www.w3.org/2000/svg" xmlns:xlink="http://www.w3.org/1999/xlink" x="0px" y="0px"
	 width="20px" height="15.355px" viewBox="0 0 20 15.355" enable-background="new 0 0 20 15.355" xml:space="preserve">
<path fill="#CCCCCC" d="M4.444,11.314H0.909C0.407,11.314,0,10.907,0,10.405V4.95c0-0.502,0.407-0.909,0.909-0.909h3.535
	l4.813-3.938c0.195-0.159,0.481-0.131,0.641,0.063C9.964,0.249,10,0.35,10,0.455V14.9c0,0.251-0.204,0.455-0.455,0.454
	c-0.105,0-0.207-0.036-0.288-0.103L4.444,11.314L4.444,11.314z M16.732,15.072l-1.287-1.287c3.373-3.007,3.67-8.18,0.662-11.552
	c-0.285-0.321-0.596-0.618-0.928-0.891l1.291-1.291c4.211,3.573,4.729,9.884,1.156,14.095c-0.277,0.328-0.576,0.637-0.893,0.926
	H16.732z M13.512,11.851l-1.293-1.293c1.592-1.227,1.887-3.51,0.661-5.102c-0.264-0.342-0.587-0.635-0.953-0.864l1.308-1.308
	c2.426,1.787,2.943,5.202,1.155,7.628C14.135,11.259,13.84,11.573,13.512,11.851L13.512,11.851z"/>
</svg>
